<?xml version="1.0" encoding="UTF-8"?>
<svg xmlns="http://www.w3.org/2000/svg"
     width="1024"
     height="1024"
     viewBox="0 0 108 108"
     role="img"
     aria-label="Narro icon proposal A">
  <defs>
    <linearGradient id="narroTeal" x1="0" y1="0" x2="0" y2="1">
      <stop offset="0" stop-color="#007F7B"/>
      <stop offset="1" stop-color="#00958F"/>
    </linearGradient>
  </defs>

  <rect width="108" height="108" fill="#FFFFFF"/>

  <g transform="translate(54 54) scale(0.729) translate(-54 -54)">
  <!-- Headphones: drawn as independent shapes with visible gaps around the N. -->
  <path d="M24 49 C24 32 37 22 54 22 C71 22 84 32 84 49"
        fill="none"
        stroke="url(#narroTeal)"
        stroke-width="4.6"
        stroke-linecap="round"/>
  <rect x="21" y="47" width="6" height="15" rx="3" fill="url(#narroTeal)"/>
  <rect x="28" y="42" width="4" height="24" rx="2" fill="url(#narroTeal)"/>
  <rect x="76" y="42" width="4" height="24" rx="2" fill="url(#narroTeal)"/>
  <rect x="81" y="47" width="6" height="15" rx="3" fill="url(#narroTeal)"/>

  <!-- N: proportions traced from the approved A concept. -->
  <path d="M35 36 H46 L64 64 V36 H74 V86 H64 L46 58 V86 H35 Z"
        fill="url(#narroTeal)"/>
  </g>
</svg>
